# xmcd CD database file
#
# Track frame offsets:
#	150
#	17657
#	28052
#	40105
#	53010
#	64627
#	76247
#	88732
#	100285
#	112485
#	125867
#	138950
#	150725
#	162160
#	173490
#	185685
#	197867
#	211102
#	223665
#	236562
#	250265
#	266720
#
# Disc length: 3781 seconds
#
# Revision: 2
# Processed by: cddbd v1.5.1PL0 Copyright (c) Steve Scherf et al.
# Submitted via: CDex 1.51
#
DISCID=3a0ec316
DTITLE=Earl 'Fatha' Hines - Piano Man 1928-1955 [Giants of Jazz #53118, 1993]
DYEAR=1928
DGENRE=Jazz
TTITLE0=Rosetta
TTITLE1=Darktown Strutter's Ball
TTITLE2=Grand Terrace Shuffle
TTITLE3=Boogie Woogie on St. Louis Blues
TTITLE4=Piano Man
TTITLE5=On the Sunny Side of the Street
TTITLE6=The Earl
TTITLE7=My Melancholy Baby
TTITLE8=G.T. Stomp
TTITLE9=Tantalizing a Cuban
TTITLE10=Number 19
TTITLE11=Child of a Disordered Brain
TTITLE12=Deep Forest
TTITLE13=Angry
TTITLE14=Weather Bird
TTITLE15=Beau Koo Jack
TTITLE16=Blues in Thirds
TTITLE17=Up Jumped the Devil
TTITLE18=Windy City Jive
TTITLE19=Second Balcony Jump
TTITLE20=Fine and Dandy
TTITLE21=Honeysuckle Rose
EXTD=YEAR: 1928
EXTT0=
EXTT1=
EXTT2=
EXTT3=
EXTT4=
EXTT5=
EXTT6=
EXTT7=
EXTT8=
EXTT9=
EXTT10=
EXTT11=
EXTT12=
EXTT13=
EXTT14=
EXTT15=
EXTT16=
EXTT17=
EXTT18=
EXTT19=
EXTT20=
EXTT21=
PLAYORDER=
